HIERARCHY
ROOT Hips
{
	OFFSET	0.000000	0.000000	0.000000
	CHANNELS 6 Xposition Yposition Zposition Zrotation Xrotation Yrotation
	JOINT LeftUpLeg
	{
		OFFSET	12.830505	-7.049846	-1.643436
		CHANNELS 3 Zrotation Xrotation Yrotation
		JOINT LeftLeg
		{
			OFFSET	0.620834	-39.957500	-1.919341
			CHANNELS 3 Zrotation Xrotation Yrotation
			JOINT LeftFoot
			{
				OFFSET	-0.413890	-44.704761	-3.870325
				CHANNELS 3 Zrotation Xrotation Yrotation
				JOINT LeftFootHeel
				{
					OFFSET	0.164738	-8.918193	-6.555130
					CHANNELS 3 Zrotation Xrotation Yrotation
					End Site
					{
						OFFSET	-0.604053	0.000000	21.044330
					}
				}
			}
		}
	}
	JOINT RightUpLeg
	{
		OFFSET	-12.830505	-7.049846	-1.643436
		CHANNELS 3 Zrotation Xrotation Yrotation
		JOINT RightLeg
		{
			OFFSET	-0.620834	-39.957500	-1.919341
			CHANNELS 3 Zrotation Xrotation Yrotation
			JOINT RightFoot
			{
				OFFSET	0.413890	-44.704761	-3.870325
				CHANNELS 3 Zrotation Xrotation Yrotation
				JOINT RightFootHeel
				{
					OFFSET	-0.164738	-8.918193	-6.555130
					CHANNELS 3 Zrotation Xrotation Yrotation
					End Site
					{
						OFFSET	0.604053	0.000000	21.044330
					}
				}
			}
		}
	}
	JOINT Spine
	{
		OFFSET	0.000000	12.498170	1.820647
		CHANNELS 3 Zrotation Xrotation Yrotation
		JOINT Spine1
		{
			OFFSET	0.000000	7.620000	0.000000
			CHANNELS 3 Zrotation Xrotation Yrotation
			JOINT LeftShoulder
			{
				OFFSET	9.167800	29.136339	-5.551221
				CHANNELS 3 Zrotation Xrotation Yrotation
				JOINT LeftArm
				{
					OFFSET	12.133453	-3.880866	1.461963
					CHANNELS 3 Zrotation Xrotation Yrotation
					JOINT LeftForeArm
					{
						OFFSET	2.507115	-31.664908	-1.069404
						CHANNELS 3 Zrotation Xrotation Yrotation
						JOINT LeftHand
						{
							OFFSET	4.116172	-24.512624	5.009439
							CHANNELS 3 Zrotation Xrotation Yrotation
							End Site
							{
								OFFSET	-0.213136	-10.931856	2.182134
							}
						}
					}
				}
			}
			JOINT RightShoulder
			{
				OFFSET	-9.167800	29.136339	-5.551221
				CHANNELS 3 Zrotation Xrotation Yrotation
				JOINT RightArm
				{
					OFFSET	-12.133453	-3.880866	1.461963
					CHANNELS 3 Zrotation Xrotation Yrotation
					JOINT RightForeArm
					{
						OFFSET	-2.507115	-31.664908	-1.069404
						CHANNELS 3 Zrotation Xrotation Yrotation
						JOINT RightHand
						{
							OFFSET	-4.116172	-24.512624	5.009439
							CHANNELS 3 Zrotation Xrotation Yrotation
							End Site
							{
								OFFSET	0.213136	-10.931856	2.182134
							}
						}
					}
				}
			}
			JOINT Neck
			{
				OFFSET	0.000000	32.926272	-3.635654
				CHANNELS 3 Zrotation Xrotation Yrotation
				JOINT Head
				{
					OFFSET	0.000000	12.481178	4.646143
					CHANNELS 3 Zrotation Xrotation Yrotation
					End Site
					{
						OFFSET	0.000000	17.715204	-2.222063
					}
				}
			}
		}
	}
}
MOTION
Frames:     8
Frame Time: 0.016667
-0.540898	102.422012	5.913330	3.853285	-0.848848	-13.014038	-2.785508	-0.859323	8.471980	-0.414122	5.976275	1.027449	-0.588848	-3.809062	2.334182	0.	0.	0.	-5.350443	-9.125248	-3.438667	-0.158723	20.732069	9.010310	-1.080190	-10.461168	0.134263	0.	0.	0.	0.000000	0.000000	0.000003	17.508089	-5.556056	-12.884782	4.519703	-10.512881	-2.208842	58.646477	-68.264153	6.006727	22.670897	6.672644	-35.554371	-7.847233	-7.924257	-14.943670	-6.267383	5.833113	2.118101	-16.026901	-17.692699	7.800377	3.823673	-7.222134	17.555614	-10.065523	0.309994	2.838620	-27.161488	-1.539966	3.772395	9.387814	14.330480	38.123314	
-0.585322	102.415656	5.729431	3.952281	-0.883492	-13.764532	-3.013279	-1.161834	8.348390	-0.494774	6.436055	1.015104	-0.364260	-4.032060	3.256342	0.	0.	0.	-5.358003	-9.582574	-2.979304	-0.105696	21.070938	9.993471	-1.368129	-10.412616	-0.632614	0.	0.	0.	0.000000	0.000000	0.000001	16.965487	-5.743647	-17.180338	4.536306	-9.578908	-2.438660	49.402046	-67.846016	4.989911	31.602503	6.528986	-39.898460	-8.248253	-8.227950	-13.427083	-5.613014	6.926689	2.518538	-15.045415	-20.846647	10.019736	3.443322	-6.920415	18.200850	-11.331845	-0.740729	1.196764	-29.090954	-3.745830	1.906604	10.593572	15.747145	43.731293	
-0.805365	102.352453	5.026762	4.821844	-0.311614	-17.092686	-3.623061	-2.373656	9.594729	-0.794896	6.854882	2.621029	-0.207469	-4.345712	3.682068	0.	0.	0.	-5.598109	-12.600077	-0.157927	0.235965	22.848764	9.415649	-1.517705	-10.331549	0.209115	0.	0.	0.	0.000000	0.000000	0.000001	15.859884	-4.686560	-16.685453	5.835635	-10.286863	-1.866396	49.016346	-66.362984	8.968394	23.631136	3.746147	-25.919733	-7.158818	-11.954286	-13.209024	-5.394307	6.935102	1.957577	-12.947192	-23.554615	10.477548	2.815780	-8.323725	16.700380	-11.844802	-0.800625	3.170717	-24.956903	-3.398751	-0.871551	7.042900	9.001238	45.451366	
-0.937833	102.168694	4.915398	4.774285	0.018489	-19.567778	-3.326840	-2.335439	10.300947	-1.219830	6.488347	3.727995	-0.059403	-4.607814	4.296457	0.	0.	0.	-5.205760	-14.054966	0.425830	-0.060229	23.742149	9.049415	-1.256313	-10.448294	2.530663	0.	0.	0.	0.000000	0.000001	0.000002	15.111261	-4.811920	-15.810027	6.912490	-9.739803	-1.084694	42.388718	-69.670822	9.316848	14.811523	-3.906204	-29.112049	-5.166766	-8.263446	-14.933958	-5.027536	7.221114	2.154798	-11.844405	-23.713457	8.804970	3.444227	-9.580285	17.325060	-12.522517	-0.543710	4.628078	-23.320257	-2.436915	-0.753347	5.837656	1.244761	44.440022	
-1.062364	102.005623	5.180751	4.527214	0.487969	-22.794956	-3.275262	-2.175571	9.569615	-1.276650	5.748053	6.128866	0.143530	-4.850509	5.842669	0.	0.	0.	-4.508319	-15.173831	-0.823423	-1.316220	23.983557	12.630363	-1.206541	-10.362383	3.681974	0.	0.	0.	0.000000	0.000000	0.000002	15.453522	-5.360355	-14.178947	7.054306	-9.093032	-2.333883	21.804567	-70.211922	-12.684042	20.044167	-1.902079	-26.579315	-6.913810	-11.398067	-12.445938	-5.435839	6.726781	0.569795	-11.241530	-21.834465	8.983849	5.925497	-12.519287	17.377329	-14.867630	-1.577856	2.839316	-22.310896	-0.236912	-1.390216	11.530657	-0.315824	40.493912	
-1.265110	102.012696	5.453014	4.429285	0.693858	-24.549120	-3.032878	-2.421191	11.315318	-1.098928	5.872501	5.628041	0.129165	-5.026262	6.381665	0.	0.	0.	-3.879941	-15.373788	-1.472667	-2.377362	23.616913	15.401329	-1.177455	-10.124620	3.575752	0.	0.	0.	0.000000	-0.000001	0.000002	15.819454	-5.024193	-13.390877	7.393862	-8.311027	-3.006295	12.617175	-70.944008	-17.486061	20.961403	-1.019060	-27.613134	-6.885264	-10.962569	-13.212752	-5.814729	7.067850	0.126916	-11.490245	-21.319447	9.939082	7.152287	-14.611909	16.535578	-15.371614	-2.112727	1.264888	-20.337164	0.321555	-1.833135	10.396817	1.655567	40.646477	
-1.378212	102.008908	5.545055	4.357479	0.739492	-25.275846	-3.716103	-2.171064	8.571368	-0.613076	5.489510	9.132897	0.078088	-5.137232	6.345412	0.	0.	0.	-3.509995	-15.433394	-1.308891	-2.756583	23.532019	16.021585	-1.130873	-10.038415	3.627481	0.	0.	0.	-0.000001	0.000000	0.000001	15.847326	-4.813610	-13.159419	7.789891	-7.733032	-3.231775	9.464883	-71.279694	-18.125645	20.607025	-0.955594	-28.282612	-6.917432	-10.843559	-13.620257	-5.832826	7.427303	0.080370	-11.616510	-21.220596	10.433472	7.447994	-15.464151	16.251841	-15.304632	-2.260514	0.733700	-14.493303	2.155655	-2.364036	4.002250	-0.131890	42.472393	
-1.438127	101.946508	5.698256	4.228508	0.794286	-26.385775	-3.848393	-2.184787	8.598383	-0.281973	5.666479	10.608719	-0.066957	-5.388025	5.981767	0.	0.	0.	-3.014919	-15.721817	-0.289802	-2.987142	23.828197	15.828980	-0.986658	-10.031885	4.028975	0.	0.	0.	0.000000	0.000000	0.000002	15.872593	-4.245534	-12.924344	8.331185	-7.145347	-3.453849	4.664320	-70.999893	-20.758297	19.262854	-1.439135	-28.013292	-6.912357	-10.716173	-14.282900	-5.878076	7.983223	0.125660	-11.760073	-21.159521	10.819283	7.799706	-16.728617	16.384899	-14.657376	-2.193512	0.637498	-11.763331	1.765544	-2.271891	-0.079176	-1.276259	44.781628	
